<svg width="124" height="28" viewBox="0 0 124 28" fill="none" xmlns="http://www.w3.org/2000/svg">
<g clip-path="url(#clip0_664_20898)">
<path d="M19.5469 23.7197C19.53 23.5628 19.4216 23.4159 19.2693 23.3925C19.2659 23.3925 19.1204 23.3725 19.0696 23.3624C18.7785 23.3124 18.5213 23.1655 18.3216 22.9652C18.0881 22.7381 17.9357 22.441 17.8951 22.1072L16.8357 13.2301C16.3111 8.95348 14.5375 5.91211 10.7229 5.91211C8.13353 5.91211 6.03499 7.59805 5.04665 8.55954C4.70818 8.89005 4.15985 8.85667 3.86876 8.48609L2.45732 6.68998C2.25424 6.42958 2.085 6.48299 1.9733 6.54309L1.73976 6.66327C1.59421 6.74006 1.50959 6.89363 1.5299 7.05721L2.06131 11.4106C2.09177 11.6844 2.39301 11.8346 2.63671 11.7077L5.16173 10.3824C8.17415 8.79657 9.86314 10.6928 10.0595 12.2519C10.0831 12.4656 10.1035 12.6058 10.1136 12.6993C10.1576 13.0699 9.92745 13.4137 9.56866 13.5306C3.86876 15.3901 0 18.2278 0 22.4844C0 25.7495 2.53517 27.9996 6.0113 27.9996C8.31293 27.9996 10.1305 26.6509 11.0816 25.646C11.3118 25.4089 11.718 25.5458 11.7586 25.8663L11.9414 27.3119C12.0091 27.8527 12.6048 28.1599 13.0922 27.9028L18.2607 25.1819L19.4047 24.5443C19.5435 24.4675 19.6213 24.3139 19.601 24.157L19.5469 23.7197ZM9.70744 24.8447C7.95414 24.8447 6.46486 23.4326 6.46486 21.2792C6.46486 19.5065 7.04026 17.1328 9.74806 14.7925C9.98837 14.5855 10.3641 14.7291 10.4013 15.0362L11.1256 20.8319L11.3829 22.865C11.5081 23.8799 10.7398 24.8447 9.70405 24.8447H9.70744Z" fill="#073914"/>
<path d="M71.669 23.7197C71.652 23.5628 71.5437 23.4159 71.3914 23.3925C71.388 23.3925 71.2425 23.3725 71.1917 23.3624C70.9006 23.3124 70.6434 23.1655 70.4437 22.9652C70.2101 22.7381 70.0578 22.441 70.0172 22.1072L68.9578 13.2301C68.4331 8.95348 66.6595 5.91211 62.8449 5.91211C60.2556 5.91211 58.1571 7.59805 57.1687 8.55954C56.8302 8.89005 56.2819 8.85667 55.9908 8.48609L54.5794 6.68998C54.3763 6.42958 54.2071 6.48299 54.0954 6.54309L53.8618 6.66327C53.7163 6.74006 53.6317 6.89363 53.652 7.05721L54.1834 11.4106C54.2138 11.6844 54.5151 11.8346 54.7588 11.7077L57.2838 10.3824C60.2962 8.79657 61.9852 10.6928 62.1815 12.2519C62.2052 12.4656 62.2255 12.6058 62.2357 12.6993C62.2797 13.0699 62.0495 13.4137 61.6907 13.5306C55.9908 15.3968 52.1221 18.2379 52.1221 22.4911C52.1221 25.7562 54.6572 28.0063 58.1334 28.0063C60.435 28.0063 62.2526 26.6575 63.2037 25.6527C63.4339 25.4156 63.84 25.5525 63.8807 25.873L64.0634 27.3186C64.1311 27.8594 64.7268 28.1665 65.2142 27.9095L70.3827 25.1886L71.5268 24.551C71.6656 24.4742 71.7434 24.3206 71.7231 24.1637L71.669 23.7263V23.7197ZM61.8261 24.8447C60.0728 24.8447 58.5835 23.4326 58.5835 21.2792C58.5835 19.5065 59.1589 17.1328 61.8667 14.7925C62.1071 14.5855 62.4828 14.7291 62.52 15.0362L63.2443 20.8319L63.5016 22.865C63.6268 23.8799 62.8585 24.8447 61.8227 24.8447H61.8261Z" fill="#073914"/>
<path d="M50.6154 26.4776L50.0772 26.1938C49.5661 25.9234 49.2479 25.3993 49.2479 24.8251V10.5797C49.2479 7.46485 47.8162 5.90911 44.9493 5.90911C42.3837 5.90911 40.5288 7.56835 39.6386 8.76687C39.4457 9.02393 39.0395 8.94047 38.9482 8.62999C38.4303 6.81718 37.0832 5.90911 34.8932 5.90911C32.507 5.90911 30.7706 7.32797 29.8364 8.47976C29.6029 8.76687 29.1392 8.59994 29.1392 8.23271V6.68698C29.1392 6.2463 28.7838 5.9258 28.3844 5.90911C28.2524 5.90243 28.1136 5.93248 27.9816 6.00259L19.1542 10.6531C19.0256 10.7199 18.9443 10.8534 18.9443 10.997V11.3108C18.9443 11.5245 19.1203 11.6981 19.337 11.6981H21.0564C21.9263 11.6981 22.6337 12.3958 22.6337 13.2538V24.8184C22.6337 25.3926 22.3122 25.9201 21.8011 26.1905L21.2663 26.4743C21.202 26.5077 21.1478 26.5577 21.114 26.6178C21.0767 26.6779 21.0598 26.7447 21.0598 26.8181V27.0251C21.0598 27.2388 21.2358 27.4124 21.4524 27.4124H30.3238C30.5405 27.4124 30.7165 27.2388 30.7165 27.0251V26.8181C30.7165 26.7113 30.6725 26.6078 30.5946 26.5377C30.5675 26.5143 30.5405 26.4943 30.5066 26.4776L29.9684 26.1938C29.7417 26.0737 29.5555 25.9 29.4133 25.6964C29.2407 25.4427 29.1392 25.1422 29.1392 24.8251V11.4711C29.1392 10.8768 29.322 10.366 29.6909 9.95537C30.0564 9.53806 30.5032 9.33441 31.0312 9.33441C31.5119 9.33441 31.9857 9.52471 32.331 9.85522C32.6728 10.1891 32.8421 10.5964 32.8421 11.0838V24.8251C32.8421 25.3959 32.5239 25.9234 32.0128 26.1938L31.4746 26.4776C31.346 26.5444 31.2648 26.6746 31.2648 26.8215V27.0285C31.2648 27.2421 31.4408 27.4157 31.6574 27.4157H39.1885L40.3697 27.4191C40.5864 27.4191 40.7624 27.2455 40.7624 27.0318V26.8248C40.7624 26.6813 40.6845 26.5477 40.5525 26.4809L40.0144 26.1972C39.5033 25.9268 39.1851 25.4026 39.1851 24.8284V11.4711C39.1851 10.8768 39.3679 10.366 39.7368 9.95537C40.1024 9.53806 40.5491 9.33441 41.0772 9.33441C41.5578 9.33441 42.0317 9.52471 42.3769 9.85522C42.7188 10.1891 42.888 10.5964 42.888 11.0838V24.8251C42.888 25.3959 42.5698 25.9234 42.0587 26.1938L41.5206 26.4776C41.3919 26.5444 41.3107 26.6746 41.3107 26.8215V27.0285C41.3107 27.2421 41.4867 27.4157 41.7033 27.4157H50.4157C50.6323 27.4157 50.8083 27.2421 50.8083 27.0285V26.8215C50.8083 26.6779 50.7304 26.5444 50.5984 26.4776H50.6154Z" fill="#073914"/>
<path d="M104.044 23.7198C104.027 23.5629 103.919 23.416 103.766 23.3926C103.763 23.3926 103.617 23.3726 103.567 23.3626C103.276 23.3125 103.018 23.1656 102.819 22.9653C102.585 22.7383 102.433 22.4412 102.392 22.1073L101.333 13.2302C100.808 8.95362 98.9431 6.96721 95.2199 6.14594C90.3763 5.07428 84.6189 8.38607 81.8569 13.4606C81.6606 13.8211 81.1123 13.6909 81.1123 13.2837V6.68678C81.1123 6.0992 80.4793 5.72529 79.9547 6.00238L71.1239 10.6529C70.9953 10.7197 70.9141 10.8532 70.9141 10.9968V11.3106C70.9141 11.5243 71.0901 11.6979 71.3067 11.6979H73.0261C73.896 11.6979 74.6034 12.3956 74.6034 13.2536V24.8182C74.6034 25.3924 74.2819 25.9199 73.7708 26.1903L73.236 26.4741C73.1074 26.5408 73.0261 26.671 73.0261 26.8179V27.0249C73.0261 27.2386 73.2022 27.4122 73.4188 27.4122H82.2902C82.5068 27.4122 82.6828 27.2386 82.6828 27.0249V26.8179C82.6828 26.6744 82.605 26.5408 82.473 26.4741L81.9314 26.1903C81.4237 25.9165 81.1021 25.3924 81.1021 24.8215V20.5115C81.1021 13.9079 86.5211 9.19399 91.8081 9.77155C93.602 9.96852 94.3974 11.1069 94.5396 12.242C94.5666 12.4557 94.5869 12.5959 94.5971 12.6894C94.6411 13.06 94.4109 13.4038 94.0522 13.5207C88.3522 15.3869 84.4835 18.228 84.4835 22.4812C84.4835 25.7463 87.0187 27.9964 90.4948 27.9964C92.7964 27.9964 94.614 26.6477 95.5651 25.6428C95.7953 25.4057 96.2015 25.5426 96.2421 25.8631L96.4249 27.3087C96.4926 27.8495 97.0883 28.1567 97.5757 27.8996L102.744 25.1787L103.888 24.5411C104.027 24.4643 104.105 24.3107 104.085 24.1571L104.03 23.7165L104.044 23.7198ZM94.2011 24.8449C92.4478 24.8449 90.9585 23.4327 90.9585 21.2794C90.9585 19.5066 91.5339 17.1329 94.2417 14.7927C94.482 14.5857 94.8577 14.7292 94.895 15.0364L95.6193 20.832L95.8765 22.8651C96.0018 23.88 95.2334 24.8449 94.1977 24.8449H94.2011Z" fill="#073914"/>
<path d="M119.343 15.0066C116.469 14.0818 114.289 13.3774 113.474 13.117C111.135 12.3625 109.314 11.8183 109.314 10.1891C109.314 8.90715 110.681 8.01577 112.499 8.01577C116.604 8.01577 119.329 11.5579 120.077 12.5461C120.185 12.6897 120.351 12.7698 120.531 12.7698C120.818 12.7698 121.059 12.5595 121.096 12.2757L121.485 9.08743L121.732 7.05428C121.753 6.89404 121.668 6.73713 121.522 6.66034L121.289 6.54016C121.174 6.47672 121.005 6.42665 120.805 6.68705L119.691 8.10257C119.431 8.43642 118.947 8.50319 118.601 8.25281C117.505 7.4549 115.559 5.90918 112.472 5.90918C107.527 5.90918 104.562 8.68681 104.562 12.6563C104.562 15.5341 106.328 17.5873 109.53 18.6155C110.488 18.9227 113.321 19.8374 114.154 20.1078C115.755 20.6219 118.537 21.4332 118.537 23.5198C118.537 25.2191 116.686 25.9402 115.068 25.9402C111.94 25.9402 108.708 24.3644 107.022 21.8505L106.142 20.5385C106.068 20.4283 105.946 20.3649 105.814 20.3649H105.377C105.14 20.3649 104.958 20.5685 104.985 20.7989L105.543 25.4761C105.587 25.85 105.81 26.1806 106.149 26.3608C107.191 26.9284 109.852 28 115.068 28C119.722 28 123.997 25.3092 123.997 20.9625C123.997 18.2516 122.287 15.9614 119.339 15.0099L119.343 15.0066Z" fill="#073914"/>
<path d="M98.6075 0.437712L98.4721 1.54609C98.2758 3.14524 96.9964 4.40385 95.3751 4.59748L89.6549 5.27854C89.4213 5.30525 89.2148 5.12497 89.2148 4.89127V4.50067C89.2148 4.35043 89.3028 4.21689 89.4382 4.15012L98.0423 0.0404307C98.3232 -0.0931094 98.6447 0.13057 98.6041 0.437712H98.6075Z" fill="#073914"/>
</g>
<defs>
<clipPath id="clip0_664_20898">
<rect width="124" height="28" fill="white"/>
</clipPath>
</defs>
</svg>
