<?xml version="1.0" encoding="UTF-8"?>
<svg id="Layer_1" data-name="Layer 1" xmlns="http://www.w3.org/2000/svg" viewBox="0 0 2205.53 622.64">
  <defs>
    <style>
      .cls-1 {
        fill: #fff;
      }
    </style>
  </defs>
  <g>
    <path class="cls-1" d="M1001.78,122.78v300.85c0,30.35-24.6,54.95-54.95,54.95h-53.31v-135.72h-3.84c-34.1,0-68.2,0-102.3,0q-3.93,0-3.93,4.04c0,42.53,0,85.06,0,127.59v4.17h-108.13V122.82h108.11v123.47h110v-123.51h108.36Z"/>
    <path class="cls-1" d="M1483.39,425.36c-.5,4.34-1.02,8.68-1.5,13.03-1.41,12.78-2.86,25.56-4.15,38.35-.26,2.54-1.86,2.04-3.34,2.04-27.42.01-54.84,0-82.25,0-2.94,0-5.88,0-9.04,0V105.85h108.07v114.36c.2.07.4.13.6.2.43-.98.89-1.95,1.3-2.94,5.47-13.36,12.46-25.8,22.2-36.57,11.34-12.53,25.53-20.01,42.14-22.17,41.31-5.38,76.38,7.87,105.28,37.3,20.49,20.87,32.37,46.56,39.07,74.79,6.17,25.99,7.16,52.31,4.08,78.73-3.38,28.96-12.03,56.25-28.85,80.4-20.38,29.28-47.82,48.19-83.26,54.45-28.94,5.11-55.23-1.38-78.4-19.61-12.77-10.05-22.76-22.43-30.03-36.99-.42-.85-.91-1.67-1.36-2.5-.19.02-.38.04-.56.07ZM1599.07,321.78c-.1-17.72-2.14-35.12-9.83-51.34-7.07-14.91-18.08-25.43-34.88-28.38-14.87-2.62-28.51.18-40.21,10.33-9.68,8.4-14.79,19.46-18.09,31.44-4.85,17.63-5.63,35.65-3.95,53.76,1.34,14.47,4.52,28.44,11.9,41.25,13.68,23.76,40.77,28.14,61.18,19.2,14.03-6.15,21.76-17.98,26.85-31.69,5.32-14.33,7.1-29.33,7.02-44.57Z"/>
    <path class="cls-1" d="M1904.32,299.45c0-1.53,0-2.48,0-3.43,0-28.68.03-57.36-.05-86.03,0-2.37.77-3.65,2.76-4.89,29.49-18.39,61.01-31.98,94.79-40.2,24.48-5.95,49.29-8.62,74.51-6.85,23.06,1.62,45.38,6.17,65.83,17.38,26.3,14.42,42.94,36,47.28,66.13.99,6.87,1.45,13.88,1.46,20.83.1,70.61.06,214.57.06,216.17h-94.7c-1.9-17.6-3.81-35.22-5.72-52.83-.16-.03-.32-.06-.48-.08-.63,1.54-1.21,3.11-1.89,4.63-5.83,13.23-16,22.71-27.32,31.04-19.11,14.07-40.67,22.3-64.24,24.18-23.96,1.91-47.34-1.13-68.77-13.04-22.26-12.37-34.56-31.26-35.44-56.89-.54-15.63,1.29-30.99,8.13-45.37,5.6-11.78,13.98-21.25,24.22-29.18,16.36-12.67,34.95-21.19,54.3-27.83,22.74-7.81,45.85-14.53,68.74-21.92,8.77-2.83,17.5-5.89,25.99-9.45,7.47-3.13,13.31-8.28,15.67-16.51,3.07-10.73-1.03-19.92-11.17-24.58-8.32-3.82-17.23-4.43-26.23-4.3-10.12.15-19.81,2.58-29.41,5.55-19.03,5.88-37.05,14.22-54.69,23.29-20.25,10.41-40.13,21.55-60.18,32.37-.94.51-1.89,1-3.47,1.83ZM2090.73,311.76c-.32-.11-.65-.22-.97-.33-14.1,14.4-31,24.92-48.15,35.15-7.91,4.72-15.64,9.82-23.09,15.23-7.81,5.67-14.17,12.61-16.84,22.37-3.32,12.15,1.71,23.5,12.94,28.23,7.18,3.02,14.46,2.27,21.63.05,16.34-5.07,27.74-16.2,36.6-30.31,8.93-14.23,13.61-29.95,15.72-46.47,1.01-7.93,1.46-15.94,2.17-23.91Z"/>
    <path class="cls-1" d="M1337.9,478.63h-94.58c-1.95-17.63-3.89-35.14-5.83-52.65-.41.06-.69.04-.72.11-5.06,14.92-15.74,25.37-27.88,34.5-16.62,12.5-35.37,20.58-55.87,23.7-27.76,4.22-54.84,1.46-79.65-12.69-20.77-11.85-32.56-29.87-33.83-54.19-.7-13.46.66-26.67,4.85-39.51,4.06-12.44,11.42-22.75,21-31.5,12.33-11.27,26.8-19.07,41.97-25.79,26.94-11.93,55.33-19.55,83.38-28.17,10.12-3.11,20.12-6.68,29.95-10.6,6.91-2.75,12.59-7.39,15.12-14.8,4.79-14.03-2.2-25.35-17.51-28.8-16.11-3.63-31.77-1.54-47.3,3.31-22.32,6.97-43.35,16.92-63.98,27.71-17.57,9.19-34.88,18.88-52.31,28.35-.94.51-1.88.99-3.18,1.68-.1-1.08-.25-1.89-.25-2.69-.01-29.07-.03-58.14.06-87.21,0-1.21.74-2.93,1.69-3.54,29.7-18.78,61.54-32.62,95.72-40.92,24.49-5.94,49.29-8.65,74.51-6.87,22.95,1.62,45.15,6.14,65.57,17.23,27.27,14.8,43.79,37.27,47.95,68.28.74,5.53,1.04,11.15,1.05,16.73.07,71.6.04,216.93.04,218.36ZM1237.26,311.32c-4.77,4.18-8.91,8.05-13.3,11.63-11.76,9.59-24.73,17.37-37.79,25.03-10.43,6.12-20.68,12.57-29.13,21.37-6.4,6.66-9.91,14.75-9.24,24.04.95,13.11,12.79,22.32,26.15,20.86,17.49-1.91,30.51-11.35,40.81-24.86,17.43-22.88,22.17-49.54,22.49-78.07Z"/>
    <path class="cls-1" d="M1746.74,478.57V105.86h108.07v317.76c0,30.35-24.6,54.95-54.95,54.95h-53.12Z"/>
  </g>
  <path class="cls-1" d="M169.51,609.96c-17.32,0-31.9-13.43-33.08-30.96-.25-3.68.12-7.26,1-10.64-20.23-10.56-38.25-23.13-53.95-37.64-34.2-31.61-56.72-72.58-65.13-118.48-11.44-62.44,3.3-134.03,41.51-201.58,26.87-47.51,64.07-91.62,109.4-130.1-1.85-2.59-3.36-5.49-4.43-8.67-5.87-17.36,3.44-36.2,20.8-42.07,22.9-7.75,40.1-12.72,52.59-15.19,9.54-1.88,38.55-7.63,52.24,16.66,2.75,4.89,10.59,22.36-4.27,41.82-3.26,4.27-7.52,8.57-13.41,13.53-1.13.95-2.32,1.83-3.57,2.62-65.82,41.84-118.23,95.12-151.58,154.08-30.57,54.04-42.64,109.77-33.99,156.93,5.89,32.12,20.99,59.6,44.9,81.7,26.93,24.9,64.36,42.43,111.24,52.12.89.19,1.78.41,2.65.66,19.89,5.85,27.33,23.21,25.83,36.87-.59,5.33-4.23,23.24-26.55,29.84-3.11.92-6.76,1.71-11.47,2.5-6.18,1.03-14.49,2.07-24.7,3.1-16.72,1.68-33.09,2.79-33.78,2.83-.76.05-1.51.08-2.26.08ZM452.07,531.97c-1.32,0-2.66-.08-4-.24-125.99-15.15-192.23-37.05-295.34-97.6-15.8-9.28-21.09-29.62-11.81-45.42,3.74-6.37,9.28-11.03,15.59-13.72-7.7-3.28-14.17-9.46-17.63-17.8-7.03-16.93,1-36.35,17.93-43.37,128.26-53.23,201.69-66.33,327.39-58.43,18.29,1.15,32.19,16.91,31.04,35.2-1.15,18.29-16.92,32.18-35.2,31.04-115.04-7.23-179.03,4.24-297.47,53.37,1.28.55,2.55,1.18,3.78,1.91,94.98,55.78,152.94,74.9,269.65,88.94,18.2,2.19,31.17,18.72,28.98,36.91-2.03,16.85-16.35,29.23-32.91,29.23ZM169.55,289.47c-8.94,0-17.84-3.59-24.38-10.67-12.44-13.46-11.6-34.46,1.86-46.9,88.09-81.37,154.65-115.44,296.76-151.91,17.75-4.56,35.84,6.14,40.39,23.9,4.56,17.75-6.14,35.84-23.9,40.39-131.08,33.64-188.74,62.95-268.22,136.38-6.38,5.89-14.46,8.81-22.51,8.81Z"/>
</svg>