<?xml version="1.0" encoding="UTF-8"?>
<svg id="Layer_1" data-name="Layer 1" xmlns="http://www.w3.org/2000/svg" viewBox="0 0 1512.72 400">
  <defs>
    <style>
      .cls-1 {
        fill: #fff;
      }
    </style>
  </defs>
  <path class="cls-1" d="M332.63,30.03v295.81c0,29.84-24.19,54.03-54.03,54.03h-52.42v-133.44h-3.78c-33.53,0-67.06,0-100.59,0q-3.86,0-3.87,3.97c0,41.82,0,83.64,0,125.46v4.1H11.63V30.07h106.3v121.4h108.16V30.03h106.55Z"/>
  <path class="cls-1" d="M806.18,327.54c-.49,4.27-1,8.54-1.47,12.81-1.38,12.57-2.81,25.13-4.08,37.71-.25,2.5-1.83,2-3.29,2-26.96.01-53.92,0-80.88,0-2.89,0-5.78,0-8.89,0V13.39h106.26v112.44c.2.06.39.13.59.19.43-.96.88-1.91,1.28-2.89,5.38-13.14,12.25-25.37,21.83-35.96,11.15-12.32,25.11-19.67,41.43-21.8,40.62-5.29,75.1,7.73,103.52,36.67,20.15,20.52,31.83,45.78,38.42,73.53,6.07,25.56,7.04,51.44,4.01,77.41-3.32,28.48-11.83,55.31-28.36,79.06-20.04,28.79-47.02,47.38-81.87,53.54-28.46,5.03-54.31-1.35-77.08-19.29-12.55-9.88-22.38-22.06-29.52-36.37-.42-.83-.89-1.64-1.34-2.46-.18.02-.37.04-.55.07ZM919.92,225.71c-.1-17.42-2.1-34.54-9.67-50.48-6.95-14.66-17.78-25-34.3-27.91-14.62-2.57-28.03.18-39.53,10.16-9.52,8.26-14.54,19.13-17.78,30.91-4.77,17.33-5.53,35.05-3.88,52.86,1.32,14.23,4.45,27.97,11.7,40.56,13.46,23.36,40.09,27.67,60.16,18.87,13.8-6.04,21.4-17.68,26.4-31.16,5.23-14.09,6.98-28.84,6.9-43.82Z"/>
  <path class="cls-1" d="M1220.07,203.74c0-1.5,0-2.44,0-3.37,0-28.2.03-56.4-.05-84.59,0-2.33.76-3.59,2.71-4.81,28.99-18.08,59.99-31.45,93.2-39.52,24.07-5.85,48.46-8.48,73.26-6.74,22.68,1.59,44.62,6.07,64.73,17.09,25.86,14.17,42.22,35.4,46.49,65.02.97,6.76,1.42,13.65,1.43,20.48.1,69.43.06,210.98.06,212.55h-93.11c-1.87-17.3-3.75-34.63-5.62-51.95-.16-.03-.32-.05-.47-.08-.62,1.52-1.19,3.05-1.85,4.55-5.73,13-15.74,22.33-26.86,30.52-18.79,13.83-39.99,21.92-63.17,23.77-23.56,1.88-46.55-1.11-67.62-12.82-21.88-12.16-33.98-30.73-34.84-55.94-.53-15.37,1.27-30.47,8-44.61,5.51-11.58,13.74-20.89,23.82-28.69,16.09-12.46,34.36-20.83,53.39-27.37,22.36-7.68,45.09-14.28,67.59-21.55,8.62-2.78,17.2-5.79,25.56-9.29,7.34-3.08,13.09-8.15,15.41-16.23,3.02-10.55-1.02-19.59-10.99-24.17-8.19-3.76-16.95-4.36-25.79-4.23-9.95.15-19.48,2.54-28.92,5.45-18.71,5.78-36.43,13.98-53.77,22.9-19.92,10.24-39.46,21.19-59.17,31.83-.92.5-1.86.98-3.41,1.8ZM1403.35,215.85c-.32-.11-.64-.22-.96-.32-13.87,14.16-30.48,24.5-47.35,34.56-7.78,4.64-15.37,9.65-22.7,14.98-7.68,5.58-13.94,12.4-16.56,21.99-3.26,11.95,1.68,23.11,12.72,27.75,7.06,2.97,14.22,2.23,21.27.05,16.06-4.98,27.27-15.93,35.98-29.8,8.78-13.99,13.38-29.45,15.46-45.69,1-7.8,1.44-15.67,2.13-23.51Z"/>
  <path class="cls-1" d="M663.13,379.93h-92.99c-1.92-17.33-3.83-34.55-5.74-51.77-.4.06-.68.04-.7.11-4.97,14.67-15.47,24.94-27.41,33.92-16.35,12.3-34.78,20.24-54.94,23.3-27.3,4.15-53.92,1.44-78.31-12.48-20.42-11.65-32.02-29.37-33.26-53.28-.69-13.24.65-26.22,4.77-38.85,3.99-12.23,11.23-22.36,20.65-30.98,12.12-11.08,26.36-18.75,41.27-25.36,26.49-11.73,54.4-19.22,81.99-27.7,9.95-3.06,19.78-6.57,29.45-10.42,6.79-2.71,12.38-7.27,14.87-14.55,4.71-13.79-2.16-24.93-17.22-28.31-15.84-3.57-31.24-1.51-46.51,3.25-21.95,6.85-42.62,16.64-62.91,27.25-17.28,9.03-34.3,18.56-51.43,27.87-.92.5-1.85.98-3.12,1.65-.1-1.06-.24-1.86-.24-2.65-.01-28.58-.03-57.17.06-85.75,0-1.19.73-2.89,1.66-3.48,29.2-18.47,60.51-32.08,94.12-40.23,24.08-5.84,48.46-8.51,73.26-6.76,22.57,1.59,44.39,6.04,64.47,16.94,26.81,14.55,43.06,36.65,47.15,67.13.73,5.43,1.03,10.96,1.03,16.45.07,70.4.04,213.3.04,214.7ZM564.17,215.42c-4.69,4.11-8.76,7.92-13.08,11.44-11.56,9.43-24.31,17.08-37.15,24.61-10.26,6.01-20.34,12.36-28.64,21.01-6.29,6.55-9.74,14.5-9.08,23.64.93,12.89,12.57,21.95,25.72,20.51,17.2-1.88,30-11.16,40.12-24.45,17.14-22.5,21.8-48.71,22.11-76.76Z"/>
  <path class="cls-1" d="M1065.12,379.86V13.39h106.26v312.44c0,29.84-24.19,54.03-54.03,54.03h-52.23Z"/>
</svg>